<mxfile host="app.diagrams.net" modified="2023-06-05T18:27:50.179Z" agent="Mozilla/5.0 (Windows NT 10.0; Win64; x64) AppleWebKit/537.36 (KHTML, like Gecko) Chrome/114.0.0.0 Safari/537.36" etag="lvHLPnac8wknDXzsXy1K" version="21.3.7" type="device">
  <diagram id="C5RBs43oDa-KdzZeNtuy" name="Page-1">
    <mxGraphModel dx="1050" dy="573" grid="1" gridSize="10" guides="1" tooltips="1" connect="1" arrows="1" fold="1" page="1" pageScale="1" pageWidth="827" pageHeight="1169" math="0" shadow="0">
      <root>
        <mxCell id="WIyWlLk6GJQsqaUBKTNV-0" />
        <mxCell id="WIyWlLk6GJQsqaUBKTNV-1" parent="WIyWlLk6GJQsqaUBKTNV-0" />
        <mxCell id="Dbh5YvqHjZ9AlxqxYSm6-4" value="&lt;b&gt;Start&lt;/b&gt;" style="rounded=0;whiteSpace=wrap;html=1;" vertex="1" parent="WIyWlLk6GJQsqaUBKTNV-1">
          <mxGeometry x="40" y="30" width="70" height="30" as="geometry" />
        </mxCell>
        <mxCell id="Dbh5YvqHjZ9AlxqxYSm6-5" value="" style="endArrow=classic;html=1;rounded=0;exitX=0.5;exitY=1;exitDx=0;exitDy=0;" edge="1" parent="WIyWlLk6GJQsqaUBKTNV-1" source="Dbh5YvqHjZ9AlxqxYSm6-4">
          <mxGeometry width="50" height="50" relative="1" as="geometry">
            <mxPoint x="410" y="170" as="sourcePoint" />
            <mxPoint x="75" y="80" as="targetPoint" />
            <Array as="points" />
          </mxGeometry>
        </mxCell>
        <mxCell id="Dbh5YvqHjZ9AlxqxYSm6-6" value="Take input from user&amp;nbsp;" style="shape=tape;whiteSpace=wrap;html=1;size=0.2;" vertex="1" parent="WIyWlLk6GJQsqaUBKTNV-1">
          <mxGeometry x="30" y="80" width="90" height="50" as="geometry" />
        </mxCell>
        <mxCell id="Dbh5YvqHjZ9AlxqxYSm6-7" value="Servo motor 1 (Base motor) rotates towards object&amp;nbsp;" style="rounded=1;whiteSpace=wrap;html=1;" vertex="1" parent="WIyWlLk6GJQsqaUBKTNV-1">
          <mxGeometry x="20" y="150" width="120" height="50" as="geometry" />
        </mxCell>
        <mxCell id="Dbh5YvqHjZ9AlxqxYSm6-10" value="" style="endArrow=classic;html=1;rounded=0;exitX=0.507;exitY=0.948;exitDx=0;exitDy=0;exitPerimeter=0;" edge="1" parent="WIyWlLk6GJQsqaUBKTNV-1" source="Dbh5YvqHjZ9AlxqxYSm6-6">
          <mxGeometry width="50" height="50" relative="1" as="geometry">
            <mxPoint x="410" y="170" as="sourcePoint" />
            <mxPoint x="76" y="150" as="targetPoint" />
          </mxGeometry>
        </mxCell>
        <mxCell id="Dbh5YvqHjZ9AlxqxYSm6-12" value="" style="endArrow=classic;html=1;rounded=0;exitX=0.5;exitY=1;exitDx=0;exitDy=0;" edge="1" parent="WIyWlLk6GJQsqaUBKTNV-1" source="Dbh5YvqHjZ9AlxqxYSm6-7" target="Dbh5YvqHjZ9AlxqxYSm6-13">
          <mxGeometry width="50" height="50" relative="1" as="geometry">
            <mxPoint x="410" y="170" as="sourcePoint" />
            <mxPoint x="79" y="220" as="targetPoint" />
          </mxGeometry>
        </mxCell>
        <mxCell id="Dbh5YvqHjZ9AlxqxYSm6-13" value="Sensor search of object" style="rounded=1;whiteSpace=wrap;html=1;" vertex="1" parent="WIyWlLk6GJQsqaUBKTNV-1">
          <mxGeometry x="30" y="225" width="101" height="40" as="geometry" />
        </mxCell>
        <mxCell id="Dbh5YvqHjZ9AlxqxYSm6-15" value="&lt;br&gt;YES" style="text;html=1;strokeColor=none;fillColor=none;align=center;verticalAlign=middle;whiteSpace=wrap;rounded=0;" vertex="1" parent="WIyWlLk6GJQsqaUBKTNV-1">
          <mxGeometry x="130" y="200" width="60" height="30" as="geometry" />
        </mxCell>
        <mxCell id="Dbh5YvqHjZ9AlxqxYSm6-16" value="" style="endArrow=classic;html=1;rounded=0;exitX=0;exitY=1;exitDx=0;exitDy=0;entryX=1;entryY=1;entryDx=0;entryDy=0;" edge="1" parent="WIyWlLk6GJQsqaUBKTNV-1">
          <mxGeometry width="50" height="50" relative="1" as="geometry">
            <mxPoint x="132" y="245" as="sourcePoint" />
            <mxPoint x="192" y="245" as="targetPoint" />
          </mxGeometry>
        </mxCell>
        <mxCell id="Dbh5YvqHjZ9AlxqxYSm6-17" value="Object detected" style="rounded=1;whiteSpace=wrap;html=1;" vertex="1" parent="WIyWlLk6GJQsqaUBKTNV-1">
          <mxGeometry x="190" y="223" width="70" height="40" as="geometry" />
        </mxCell>
        <mxCell id="Dbh5YvqHjZ9AlxqxYSm6-19" value="NO" style="text;html=1;strokeColor=none;fillColor=none;align=center;verticalAlign=middle;whiteSpace=wrap;rounded=0;" vertex="1" parent="WIyWlLk6GJQsqaUBKTNV-1">
          <mxGeometry x="72" y="270" width="41" height="20" as="geometry" />
        </mxCell>
        <mxCell id="Dbh5YvqHjZ9AlxqxYSm6-20" value="" style="endArrow=classic;html=1;rounded=0;exitX=0;exitY=0;exitDx=0;exitDy=0;" edge="1" parent="WIyWlLk6GJQsqaUBKTNV-1">
          <mxGeometry width="50" height="50" relative="1" as="geometry">
            <mxPoint x="76" y="268" as="sourcePoint" />
            <mxPoint x="76" y="298" as="targetPoint" />
          </mxGeometry>
        </mxCell>
        <mxCell id="Dbh5YvqHjZ9AlxqxYSm6-21" value="Object not found&amp;nbsp;" style="rounded=1;whiteSpace=wrap;html=1;" vertex="1" parent="WIyWlLk6GJQsqaUBKTNV-1">
          <mxGeometry x="40" y="300" width="75" height="40" as="geometry" />
        </mxCell>
        <mxCell id="Dbh5YvqHjZ9AlxqxYSm6-22" value="" style="endArrow=classic;html=1;rounded=0;exitX=0.5;exitY=1;exitDx=0;exitDy=0;" edge="1" parent="WIyWlLk6GJQsqaUBKTNV-1">
          <mxGeometry width="50" height="50" relative="1" as="geometry">
            <mxPoint x="80" y="342" as="sourcePoint" />
            <mxPoint x="79.5" y="369" as="targetPoint" />
          </mxGeometry>
        </mxCell>
        <mxCell id="Dbh5YvqHjZ9AlxqxYSm6-23" value="Bulb stay off" style="ellipse;whiteSpace=wrap;html=1;" vertex="1" parent="WIyWlLk6GJQsqaUBKTNV-1">
          <mxGeometry x="34.25" y="370" width="90.5" height="50" as="geometry" />
        </mxCell>
        <mxCell id="Dbh5YvqHjZ9AlxqxYSm6-24" value="" style="endArrow=classic;html=1;rounded=0;exitX=0.5;exitY=1;exitDx=0;exitDy=0;" edge="1" parent="WIyWlLk6GJQsqaUBKTNV-1">
          <mxGeometry width="50" height="50" relative="1" as="geometry">
            <mxPoint x="225" y="265" as="sourcePoint" />
            <mxPoint x="225" y="294" as="targetPoint" />
          </mxGeometry>
        </mxCell>
        <mxCell id="Dbh5YvqHjZ9AlxqxYSm6-25" value="Green light on" style="ellipse;whiteSpace=wrap;html=1;" vertex="1" parent="WIyWlLk6GJQsqaUBKTNV-1">
          <mxGeometry x="185" y="296" width="80" height="50" as="geometry" />
        </mxCell>
        <mxCell id="Dbh5YvqHjZ9AlxqxYSm6-27" value="Take input from user&amp;nbsp;" style="shape=tape;whiteSpace=wrap;html=1;size=0.2;" vertex="1" parent="WIyWlLk6GJQsqaUBKTNV-1">
          <mxGeometry x="300" y="30" width="90" height="50" as="geometry" />
        </mxCell>
        <mxCell id="Dbh5YvqHjZ9AlxqxYSm6-29" value="" style="endArrow=classic;html=1;rounded=0;exitX=0.471;exitY=0.064;exitDx=0;exitDy=0;exitPerimeter=0;" edge="1" parent="WIyWlLk6GJQsqaUBKTNV-1">
          <mxGeometry width="50" height="50" relative="1" as="geometry">
            <mxPoint x="222" y="219" as="sourcePoint" />
            <mxPoint x="300" y="61" as="targetPoint" />
            <Array as="points">
              <mxPoint x="222" y="61" />
            </Array>
          </mxGeometry>
        </mxCell>
        <mxCell id="Dbh5YvqHjZ9AlxqxYSm6-32" value="" style="endArrow=classic;html=1;rounded=0;exitX=0.511;exitY=0.94;exitDx=0;exitDy=0;exitPerimeter=0;" edge="1" parent="WIyWlLk6GJQsqaUBKTNV-1" source="Dbh5YvqHjZ9AlxqxYSm6-27">
          <mxGeometry width="50" height="50" relative="1" as="geometry">
            <mxPoint x="410" y="170" as="sourcePoint" />
            <mxPoint x="346" y="110" as="targetPoint" />
          </mxGeometry>
        </mxCell>
        <mxCell id="Dbh5YvqHjZ9AlxqxYSm6-33" value="Servo motor 2 (Shoulder motor)&lt;br&gt;rotates&amp;nbsp;" style="rounded=1;whiteSpace=wrap;html=1;" vertex="1" parent="WIyWlLk6GJQsqaUBKTNV-1">
          <mxGeometry x="300" y="110" width="105" height="50" as="geometry" />
        </mxCell>
        <mxCell id="Dbh5YvqHjZ9AlxqxYSm6-34" value="" style="endArrow=classic;html=1;rounded=0;exitX=0.5;exitY=1;exitDx=0;exitDy=0;" edge="1" parent="WIyWlLk6GJQsqaUBKTNV-1" source="Dbh5YvqHjZ9AlxqxYSm6-33">
          <mxGeometry width="50" height="50" relative="1" as="geometry">
            <mxPoint x="410" y="170" as="sourcePoint" />
            <mxPoint x="353" y="200" as="targetPoint" />
          </mxGeometry>
        </mxCell>
        <mxCell id="Dbh5YvqHjZ9AlxqxYSm6-36" value="Take input from user&amp;nbsp;" style="shape=tape;whiteSpace=wrap;html=1;size=0.2;" vertex="1" parent="WIyWlLk6GJQsqaUBKTNV-1">
          <mxGeometry x="307.5" y="200" width="90" height="50" as="geometry" />
        </mxCell>
        <mxCell id="Dbh5YvqHjZ9AlxqxYSm6-37" value="" style="endArrow=classic;html=1;rounded=0;exitX=0.472;exitY=0.964;exitDx=0;exitDy=0;exitPerimeter=0;" edge="1" parent="WIyWlLk6GJQsqaUBKTNV-1" source="Dbh5YvqHjZ9AlxqxYSm6-36">
          <mxGeometry width="50" height="50" relative="1" as="geometry">
            <mxPoint x="410" y="170" as="sourcePoint" />
            <mxPoint x="350" y="280" as="targetPoint" />
          </mxGeometry>
        </mxCell>
        <mxCell id="Dbh5YvqHjZ9AlxqxYSm6-38" value="Servo motor 3&amp;nbsp; &amp;nbsp;(elbow motor)&lt;br&gt;rotates to go near object" style="rounded=1;whiteSpace=wrap;html=1;arcSize=16;" vertex="1" parent="WIyWlLk6GJQsqaUBKTNV-1">
          <mxGeometry x="300" y="280" width="120" height="60" as="geometry" />
        </mxCell>
        <mxCell id="Dbh5YvqHjZ9AlxqxYSm6-39" value="Take input from user&amp;nbsp;" style="shape=tape;whiteSpace=wrap;html=1;size=0.2;" vertex="1" parent="WIyWlLk6GJQsqaUBKTNV-1">
          <mxGeometry x="315" y="364" width="90" height="50" as="geometry" />
        </mxCell>
        <mxCell id="Dbh5YvqHjZ9AlxqxYSm6-40" value="" style="endArrow=classic;html=1;rounded=0;exitX=0.45;exitY=1.003;exitDx=0;exitDy=0;exitPerimeter=0;" edge="1" parent="WIyWlLk6GJQsqaUBKTNV-1" source="Dbh5YvqHjZ9AlxqxYSm6-38">
          <mxGeometry width="50" height="50" relative="1" as="geometry">
            <mxPoint x="590" y="300" as="sourcePoint" />
            <mxPoint x="354" y="370" as="targetPoint" />
          </mxGeometry>
        </mxCell>
        <mxCell id="Dbh5YvqHjZ9AlxqxYSm6-41" value="servo motor 4 (Claw motor) starts&amp;nbsp;" style="rounded=1;whiteSpace=wrap;html=1;" vertex="1" parent="WIyWlLk6GJQsqaUBKTNV-1">
          <mxGeometry x="307.5" y="440" width="100" height="54" as="geometry" />
        </mxCell>
        <mxCell id="Dbh5YvqHjZ9AlxqxYSm6-42" value="" style="endArrow=classic;html=1;rounded=0;exitX=0.45;exitY=1.003;exitDx=0;exitDy=0;exitPerimeter=0;" edge="1" parent="WIyWlLk6GJQsqaUBKTNV-1">
          <mxGeometry width="50" height="50" relative="1" as="geometry">
            <mxPoint x="359.5" y="410" as="sourcePoint" />
            <mxPoint x="359.5" y="440" as="targetPoint" />
          </mxGeometry>
        </mxCell>
        <mxCell id="Dbh5YvqHjZ9AlxqxYSm6-43" value="" style="endArrow=classic;html=1;rounded=0;exitX=0.45;exitY=1.003;exitDx=0;exitDy=0;exitPerimeter=0;" edge="1" parent="WIyWlLk6GJQsqaUBKTNV-1">
          <mxGeometry width="50" height="50" relative="1" as="geometry">
            <mxPoint x="359.5" y="494" as="sourcePoint" />
            <mxPoint x="359.5" y="524" as="targetPoint" />
          </mxGeometry>
        </mxCell>
        <mxCell id="Dbh5YvqHjZ9AlxqxYSm6-44" value="Claw&amp;nbsp;contracts to hold object&amp;nbsp;" style="rounded=1;whiteSpace=wrap;html=1;" vertex="1" parent="WIyWlLk6GJQsqaUBKTNV-1">
          <mxGeometry x="307.5" y="525" width="102.5" height="45" as="geometry" />
        </mxCell>
        <mxCell id="Dbh5YvqHjZ9AlxqxYSm6-45" value="Lift the object by operating servo motor 3" style="rounded=1;whiteSpace=wrap;html=1;" vertex="1" parent="WIyWlLk6GJQsqaUBKTNV-1">
          <mxGeometry x="308.75" y="600" width="100" height="50" as="geometry" />
        </mxCell>
        <mxCell id="Dbh5YvqHjZ9AlxqxYSm6-46" value="" style="endArrow=classic;html=1;rounded=0;exitX=0.5;exitY=1;exitDx=0;exitDy=0;entryX=0.5;entryY=0;entryDx=0;entryDy=0;" edge="1" parent="WIyWlLk6GJQsqaUBKTNV-1" source="Dbh5YvqHjZ9AlxqxYSm6-44" target="Dbh5YvqHjZ9AlxqxYSm6-45">
          <mxGeometry width="50" height="50" relative="1" as="geometry">
            <mxPoint x="410" y="650" as="sourcePoint" />
            <mxPoint x="460" y="600" as="targetPoint" />
          </mxGeometry>
        </mxCell>
        <mxCell id="Dbh5YvqHjZ9AlxqxYSm6-47" value="Take input to rotate base motor" style="shape=tape;whiteSpace=wrap;html=1;size=0.2;" vertex="1" parent="WIyWlLk6GJQsqaUBKTNV-1">
          <mxGeometry x="306.25" y="670" width="105" height="60" as="geometry" />
        </mxCell>
        <mxCell id="Dbh5YvqHjZ9AlxqxYSm6-48" value="" style="endArrow=classic;html=1;rounded=0;exitX=0.45;exitY=1.003;exitDx=0;exitDy=0;exitPerimeter=0;" edge="1" parent="WIyWlLk6GJQsqaUBKTNV-1">
          <mxGeometry width="50" height="50" relative="1" as="geometry">
            <mxPoint x="359.5" y="650" as="sourcePoint" />
            <mxPoint x="359.5" y="680" as="targetPoint" />
          </mxGeometry>
        </mxCell>
        <mxCell id="Dbh5YvqHjZ9AlxqxYSm6-49" value="" style="endArrow=classic;html=1;rounded=0;exitX=0;exitY=0.65;exitDx=0;exitDy=0;exitPerimeter=0;" edge="1" parent="WIyWlLk6GJQsqaUBKTNV-1" source="Dbh5YvqHjZ9AlxqxYSm6-47">
          <mxGeometry width="50" height="50" relative="1" as="geometry">
            <mxPoint x="410" y="650" as="sourcePoint" />
            <mxPoint x="270" y="710" as="targetPoint" />
            <Array as="points">
              <mxPoint x="270" y="710" />
            </Array>
          </mxGeometry>
        </mxCell>
        <mxCell id="Dbh5YvqHjZ9AlxqxYSm6-50" value="Reach the place to keep object&amp;nbsp;" style="rounded=1;whiteSpace=wrap;html=1;" vertex="1" parent="WIyWlLk6GJQsqaUBKTNV-1">
          <mxGeometry x="170" y="680" width="100" height="50" as="geometry" />
        </mxCell>
        <mxCell id="Dbh5YvqHjZ9AlxqxYSm6-51" value="" style="endArrow=classic;html=1;rounded=0;exitX=0.5;exitY=1;exitDx=0;exitDy=0;entryX=0.5;entryY=0;entryDx=0;entryDy=0;" edge="1" parent="WIyWlLk6GJQsqaUBKTNV-1">
          <mxGeometry width="50" height="50" relative="1" as="geometry">
            <mxPoint x="219.5" y="730" as="sourcePoint" />
            <mxPoint x="219.5" y="760" as="targetPoint" />
          </mxGeometry>
        </mxCell>
        <mxCell id="Dbh5YvqHjZ9AlxqxYSm6-52" value="Take input to expand the claw&amp;nbsp;" style="shape=tape;whiteSpace=wrap;html=1;size=0.2;" vertex="1" parent="WIyWlLk6GJQsqaUBKTNV-1">
          <mxGeometry x="172.5" y="750" width="105" height="60" as="geometry" />
        </mxCell>
        <mxCell id="Dbh5YvqHjZ9AlxqxYSm6-53" value="" style="endArrow=classic;html=1;rounded=0;exitX=0.45;exitY=1.003;exitDx=0;exitDy=0;exitPerimeter=0;" edge="1" parent="WIyWlLk6GJQsqaUBKTNV-1">
          <mxGeometry width="50" height="50" relative="1" as="geometry">
            <mxPoint x="224.5" y="810" as="sourcePoint" />
            <mxPoint x="224.5" y="840" as="targetPoint" />
          </mxGeometry>
        </mxCell>
        <mxCell id="Dbh5YvqHjZ9AlxqxYSm6-54" value="Expand the claw" style="rounded=1;whiteSpace=wrap;html=1;" vertex="1" parent="WIyWlLk6GJQsqaUBKTNV-1">
          <mxGeometry x="185" y="840" width="75" height="40" as="geometry" />
        </mxCell>
        <mxCell id="Dbh5YvqHjZ9AlxqxYSm6-56" value="" style="endArrow=classic;html=1;rounded=0;exitX=1;exitY=0.5;exitDx=0;exitDy=0;" edge="1" parent="WIyWlLk6GJQsqaUBKTNV-1" source="Dbh5YvqHjZ9AlxqxYSm6-54" target="Dbh5YvqHjZ9AlxqxYSm6-57">
          <mxGeometry width="50" height="50" relative="1" as="geometry">
            <mxPoint x="410" y="850" as="sourcePoint" />
            <mxPoint x="320" y="860" as="targetPoint" />
          </mxGeometry>
        </mxCell>
        <mxCell id="Dbh5YvqHjZ9AlxqxYSm6-57" value="&lt;b&gt;Stop&lt;/b&gt;" style="rounded=0;whiteSpace=wrap;html=1;" vertex="1" parent="WIyWlLk6GJQsqaUBKTNV-1">
          <mxGeometry x="320" y="840" width="60" height="40" as="geometry" />
        </mxCell>
      </root>
    </mxGraphModel>
  </diagram>
</mxfile>
